# xmcd
#
# Track frame offsets: 
#        150
#        14985
#        32289
#        51741
#        71817
#        90799
#        108505
#        126369
#        142366
#        156030
#        173650
#        194040
#        222081
#        245082
#        268923
#        288382
#        307161
#
# Disc length: 4370 seconds
#
# Revision: 0
# Processed by: cddbd v1.4PL0 Copyright (c) Steve Scherf et al.
# Submitted via: ExactAudioCopy v0.90b4
#
DISCID=13111011
DTITLE=Игорь Саруханов - Новый Альбом
DYEAR=2003
DGENRE=A Cappella
TTITLE0=Бухта радости
TTITLE1=Они любили друг друга
TTITLE2=Все было
TTITLE3=Моя любовь
TTITLE4=Не расказывай
TTITLE5=Поплакала, и хватит
TTITLE6=Знаю, будет больно...
TTITLE7=Музыка
TTITLE8=Карнавал
TTITLE9=Лодочка (Remix)
TTITLE10=Желаю тебе
TTITLE11=Скрип колеса
TTITLE12=Я хочу побыть один
TTITLE13=Зеленые глаза
TTITLE14=Мама
TTITLE15=Придуманная любовь
TTITLE16=Журавли
EXTD=
EXTT0=
EXTT1=
EXTT2=
EXTT3=
EXTT4=
EXTT5=
EXTT6=
EXTT7=
EXTT8=
EXTT9=
EXTT10=
EXTT11=
EXTT12=
EXTT13=
EXTT14=
EXTT15=
EXTT16=
PLAYORDER=
